Coordinates
version=1
nRows=16
nColumns=40
inDegrees=yes

Units are S.I. units (second, meters, Newtons, ...)
Angles are in degrees.

endheader
time	pelvis_tilt	pelvis_list	pelvis_rotation	pelvis_tx	pelvis_ty	pelvis_tz	hip_flexion_r	hip_adduction_r	hip_rotation_r	knee_angle_r	knee_angle_r_beta	ankle_angle_r	subtalar_angle_r	mtp_angle_r	hip_flexion_l	hip_adduction_l	hip_rotation_l	knee_angle_l	knee_angle_l_beta	ankle_angle_l	subtalar_angle_l	mtp_angle_l	lumbar_extension	lumbar_bending	lumbar_rotation	arm_flex_r	arm_add_r	arm_rot_r	elbow_flex_r	pro_sup_r	wrist_flex_r	wrist_dev_r	arm_flex_l	arm_add_l	arm_rot_l	elbow_flex_l	pro_sup_l	wrist_flex_l	wrist_dev_l
     52.84314286	     -2.73054463	     -4.67693576	      0.23957635	      1.03545769	      0.93540938	      0.43369046	     29.44318356	     -6.19319407	     -3.56921280	     48.76340801	     48.76340801	      2.95658764	    -12.50129699	     -0.92888336	     10.42415499	     -6.37764373	     -8.09082969	     19.54144145	     19.54144145	     12.91989223	    -10.42977541	     -1.89355546	    -10.98461928	      5.37805697	      0.42137252	      5.57102531	    -14.80073047	     -0.66374257	     30.56393152	     46.82627486	      0.00000000	      0.00000000	      8.61015024	    -17.41937888	      3.68191897	     44.82671688	     45.83048005	      0.00000000	      0.00000000
     52.85628571	     -2.76904565	     -4.76707128	     -0.07288480	      1.03443511	      0.93536303	      0.43434270	     29.35902052	     -5.96264806	     -3.49233501	     45.24847875	     45.24847875	      2.45272294	    -12.54841940	     -2.42729511	     10.05457441	     -6.50945451	     -8.25918206	     19.45272786	     19.45272786	     13.19567021	    -10.55288113	     -1.75063206	    -11.14848955	      5.42059686	      0.60019387	      4.86584810	    -14.61441072	     -5.40425677	     29.63171703	     47.09236694	      0.00000000	      0.00000000	      8.77799022	    -17.89044794	      4.78415558	     46.60688625	     45.80987742	      0.00000000	      0.00000000
     52.86942857	     -2.92548403	     -4.93408933	     -0.34557576	      1.03336136	      0.93506518	      0.43510368	     29.30775172	     -5.68084469	     -3.58979236	     41.69642080	     41.69642080	      2.71867172	    -11.90428529	     -1.97935343	      9.85401762	     -6.72705288	     -8.33961044	     19.40489089	     19.40489089	     13.40373419	    -10.76304903	     -1.79068392	    -11.13920007	      5.60428096	      0.45955075	      4.20969452	    -15.01344937	     -5.59450460	     29.25701310	     47.10989131	      0.00000000	      0.00000000	      9.17307715	    -18.00294079	      4.72520497	     46.89969479	     45.82719283	      0.00000000	      0.00000000
     52.88257143	     -3.05517287	     -5.06883269	     -0.61992321	      1.03239131	      0.93474401	      0.43602441	     29.08574881	     -5.39517942	     -3.74730661	     38.01102446	     38.01102446	      2.98074758	    -11.02622354	     -1.54809427	      9.62649362	     -6.92312322	     -8.43903922	     19.37851068	     19.37851068	     13.60148366	    -10.98326221	     -1.81112041	    -11.15584174	      5.77607271	      0.48577430	      3.54967899	    -15.37221831	     -5.84065887	     28.84906898	     47.13277965	      0.00000000	      0.00000000	      9.57640417	    -18.07062668	      4.68340979	     47.42401062	     45.84529119	      0.00000000	      0.00000000
     52.89571429	     -3.16874613	     -5.18791732	     -0.90735105	      1.03152558	      0.93434459	      0.43710497	     28.76753882	     -5.08543647	     -3.95415940	     34.35876650	     34.35876650	      3.23793240	     -9.81112920	     -1.14343617	      9.37056752	     -7.10949812	     -8.52624960	     19.36590183	     19.36590183	     13.85103176	    -11.19857468	     -1.83921935	    -11.17499741	      5.88592432	      0.58363520	      2.90653602	    -15.67906933	     -6.17009904	     28.42720236	     47.16163298	      0.00000000	      0.00000000	      9.97753668	    -18.10746585	      4.67311581	     48.16380034	     45.86338861	      0.00000000	      0.00000000
     52.90885714	     -3.35265898	     -5.23350045	     -1.18962053	      1.03075893	      0.93376820	      0.43838189	     28.46834187	     -4.80496340	     -4.19374053	     30.83758687	     30.83758687	      3.52724336	     -8.38133330	     -0.71477423	      9.19513066	     -7.23519848	     -8.64824010	     19.36234839	     19.36234839	     14.07098172	    -11.38511608	     -1.87528342	    -11.11371267	      5.93892596	      0.67713101	      2.33163673	    -15.86318346	     -6.47764387	     28.06443318	     47.18820950	      0.00000000	      0.00000000	     10.31630291	    -18.18059177	      4.67072336	     48.92017593	     45.87969052	      0.00000000	      0.00000000
     52.92200000	     -3.44856613	     -5.29558476	     -1.45227842	      1.03018026	      0.93326731	      0.43983104	     28.02153987	     -4.50450309	     -4.67027705	     27.52799345	     27.52799345	      3.79053738	     -6.54523246	     -0.21828259	      8.89624987	     -7.38828110	     -8.77093485	     19.34155731	     19.34155731	     14.32212755	    -11.54564022	     -1.91564415	    -11.14142121	      5.97383515	      0.85516894	      1.78000903	    -16.04745409	     -6.87838895	     27.67946220	     47.22174884	      0.00000000	      0.00000000	     10.62341439	    -18.20417198	      4.70316115	     49.91281907	     45.89650451	      0.00000000	      0.00000000
     52.93514286	     -3.56079161	     -5.29522386	     -1.70568574	      1.02980462	      0.93265049	      0.44143480	     27.61035965	     -4.23507828	     -5.24435127	     24.61208864	     24.61208864	      4.06169030	     -4.57311752	      0.36296162	      8.58344161	     -7.48379689	     -8.92760403	     19.28865569	     19.28865569	     14.57736261	    -11.66003864	     -1.98308170	    -11.09342801	      5.96318881	      1.01776861	      1.28678046	    -16.12469756	     -7.29561638	     27.33800882	     47.25505573	      0.00000000	      0.00000000	     10.87404629	    -18.24440648	      4.74984247	     50.96944502	     45.91302755	      0.00000000	      0.00000000
     52.94828571	     -3.64291498	     -5.17783789	     -1.94335768	      1.02960457	      0.93203865	      0.44315242	     27.39324636	     -4.16175389	     -6.18715620	     22.58802263	     22.58802263	      5.33200685	     -1.82464903	      3.40894757	      8.18646427	     -7.45172690	     -9.12285687	     19.15138851	     19.15138851	     14.78102102	    -11.70680966	     -2.09157132	    -11.12514566	      5.79947290	      1.14157664	      1.43313023	    -15.46417558	    -12.86255797	     25.99005165	     47.53853075	      0.00000000	      0.00000000	     10.59847766	    -18.62262496	      5.26945920	     53.37712930	     46.06216547	      0.00000000	      0.00000000
     52.96142857	     -3.77828761	     -5.17771375	     -2.13993540	      1.02965072	      0.93131931	      0.44517406	     27.02080213	     -3.78780388	     -6.86393306	     20.52370834	     20.52370834	      5.37590642	     -0.39734577	      3.76783656	      7.84252534	     -7.57270727	     -9.27283979	     19.02847435	     19.02847435	     15.01991233	    -11.73218121	     -2.20006610	    -10.96460063	      5.78256093	      1.28306539	      1.01105875	    -15.43831417	    -12.92072441	     25.82152434	     47.53671178	      0.00000000	      0.00000000	     10.90069335	    -18.55464402	      5.23540879	     54.00198217	     46.08117622	      0.00000000	      0.00000000
     52.97457143	     -3.76406019	     -5.07386335	     -2.31924360	      1.03007411	      0.93072976	      0.44729775	     26.59530416	     -3.60745330	     -7.97832817	     19.14248276	     19.14248276	      5.58344547	      1.46605545	      4.08742266	      7.24063584	     -7.58274053	     -9.53606582	     18.78396791	     18.78396791	     15.26306226	    -11.58360986	     -2.40197079	    -10.96289333	      5.62925686	      1.49637862	      0.57574971	    -15.40266541	    -13.07629059	     25.72802183	     47.53009170	      0.00000000	      0.00000000	     11.07936887	    -18.54131233	      5.20934043	     55.14187023	     46.11009439	      0.00000000	      0.00000000
     52.98771429	     -3.82643628	     -4.96865864	     -2.45350303	      1.03073876	      0.92996000	      0.44953793	     26.28595049	     -3.41535239	     -9.11217779	     18.25615068	     18.25615068	      5.73985176	      2.85558434	      4.46497842	      6.68338826	     -7.59199814	     -9.77095808	     18.46500884	     18.46500884	     15.45884401	    -11.41646078	     -2.71442600	    -10.80497102	      5.48786391	      1.50033685	      0.25139310	    -15.24926672	    -13.35954530	     25.77476315	     47.51505274	      0.00000000	      0.00000000	     10.92200082	    -18.62581817	      5.19383321	     56.59111922	     46.15153740	      0.00000000	      0.00000000
     53.00085714	     -3.86621540	     -4.90633458	     -2.55128443	      1.03168194	      0.92921859	      0.45202246	     25.84584406	     -3.09433302	    -10.01658653	     17.55914282	     17.55914282	      5.68552461	      3.41508273	      4.59369754	      6.07199768	     -7.65340424	     -9.94259999	     18.12563174	     18.12563174	     15.70352273	    -11.25674804	     -2.82915560	    -10.61236417	      5.39745108	      1.59425175	     -0.03172224	    -15.10162753	    -13.42028995	     25.69961754	     47.50957341	      0.00000000	      0.00000000	     11.02590554	    -18.49878713	      5.14732348	     57.25839957	     46.17259303	      0.00000000	      0.00000000
     53.01400000	     -3.81871206	     -4.80689795	     -2.61699238	      1.03301777	      0.92848516	      0.45456647	     25.32726237	     -2.88299812	    -11.10513397	     17.27052505	     17.27052505	      5.61887785	      4.04043332	      4.42996517	      5.28613789	     -7.67518121	    -10.20300303	     17.68031923	     17.68031923	     15.99009855	    -10.89017145	     -2.97147736	    -10.46787146	      5.28571174	      1.69921842	     -0.33233382	    -14.91070101	    -13.51244127	     25.72899072	     47.49855243	      0.00000000	      0.00000000	     11.01042763	    -18.37414139	      5.06933638	     58.21120110	     46.20109617	      0.00000000	      0.00000000
     53.02714286	     -3.84542988	     -4.74903552	     -2.60935248	      1.03451310	      0.92752029	      0.45722080	     24.91201474	     -2.62936732	    -11.99188853	     17.29384263	     17.29384263	      5.50285514	      4.06835287	      4.21326087	      4.63497196	     -7.75406014	    -10.33295218	     17.32959499	     17.32959499	     16.32143014	    -10.63379105	     -3.04497175	    -10.16581440	      5.22319778	      1.67676828	     -0.54695461	    -14.67537157	    -13.55277727	     25.78460015	     47.48868324	      0.00000000	      0.00000000	     10.98855007	    -18.24946945	      5.01977838	     58.80098974	     46.21828408	      0.00000000	      0.00000000
     53.04028571	     -3.70554951	     -4.64257235	     -2.64971596	      1.03646453	      0.92678092	      0.46001713	     24.19047590	     -2.44325285	    -12.90797862	     17.28818171	     17.28818171	      5.22351030	      4.38147022	      3.39850840	      3.67892922	     -7.79130491	    -10.69680890	     16.84132885	     16.84132885	     16.72229731	     -9.99731112	     -3.00514854	    -10.05935844	      5.09911408	      1.76069268	     -0.82798063	    -14.43903471	    -13.66604718	     26.08422941	     47.46334756	      0.00000000	      0.00000000	     10.72751481	    -18.09687727	      4.82750769	     60.05056311	     46.26049173	      0.00000000	      0.00000000
